<?xml version="1.0" standalone="no"?>
<!DOCTYPE svg PUBLIC "-//W3C//DTD SVG 20010904//EN"
 "http://www.w3.org/TR/2001/REC-SVG-20010904/DTD/svg10.dtd">
<svg version="1.0" xmlns="http://www.w3.org/2000/svg"
 width="480.000000pt" height="559.000000pt" viewBox="0 0 480.000000 559.000000"
 preserveAspectRatio="xMidYMid meet">
<metadata>
Created by potrace 1.15, written by Peter Selinger 2001-2017
</metadata>
<g transform="translate(0.000000,559.000000) scale(0.100000,-0.100000)"
fill="#000000" stroke="none">
<path d="M3355 5573 c-11 -3 -24 -11 -30 -18 -5 -7 -32 -21 -58 -30 -26 -10
-51 -23 -55 -29 -4 -6 -20 -18 -37 -26 -16 -8 -43 -27 -60 -42 -87 -79 -110
-98 -122 -98 -8 0 -19 -11 -25 -25 -6 -14 -14 -25 -18 -25 -4 0 -26 -18 -49
-40 -23 -22 -52 -42 -65 -46 -14 -3 -27 -16 -30 -29 -3 -13 -21 -30 -42 -40
-20 -9 -39 -25 -41 -35 -3 -10 -15 -21 -28 -24 -13 -3 -33 -19 -45 -36 -13
-19 -33 -32 -55 -36 -19 -3 -45 -16 -58 -28 -13 -11 -35 -30 -50 -41 -44 -32
-37 -85 38 -316 101 -308 121 -478 86 -729 -31 -221 -30 -218 -50 -238 -10 -9
-21 -36 -25 -60 -3 -24 -15 -62 -25 -85 -10 -23 -27 -62 -37 -87 -10 -25 -31
-64 -46 -87 -15 -23 -28 -55 -28 -72 0 -38 -16 -81 -31 -81 -18 0 -65 57 -89
107 -21 46 -74 103 -170 181 -25 20 -56 48 -70 63 -14 15 -47 44 -75 64 -27
21 -60 48 -72 61 -40 40 -87 70 -132 83 -24 7 -57 25 -74 40 -16 16 -55 38
-86 51 -31 12 -79 35 -107 50 -28 16 -93 38 -144 51 -53 13 -102 31 -113 42
-26 26 -74 45 -133 52 -27 3 -101 12 -164 20 -63 7 -145 17 -183 20 l-67 7 0
-27 c0 -14 4 -35 10 -45 9 -17 53 -35 76 -32 6 1 78 -7 159 -18 136 -18 152
-22 186 -50 32 -25 159 -69 159 -54 0 11 57 -27 82 -54 17 -18 42 -32 65 -36
21 -3 58 -22 83 -42 25 -20 59 -42 76 -49 17 -7 59 -38 95 -70 35 -31 84 -69
109 -83 25 -14 49 -32 54 -40 17 -29 82 -96 107 -111 33 -20 101 -102 176
-210 32 -46 68 -90 80 -99 37 -24 29 -50 -19 -63 -42 -11 -57 -22 -129 -91
-21 -21 -43 -38 -49 -38 -6 0 -21 -9 -33 -20 -12 -11 -39 -26 -61 -32 -21 -7
-41 -20 -43 -29 -5 -17 -43 -39 -67 -39 -7 0 -24 -8 -37 -19 -13 -10 -51 -24
-84 -31 -33 -6 -70 -18 -83 -26 -22 -15 -228 -21 -317 -10 -183 23 -176 21
-257 69 -25 15 -72 32 -105 37 -89 15 -100 18 -125 31 -13 6 -27 18 -32 26
-25 43 -158 59 -189 23 -9 -11 -17 -25 -17 -30 0 -6 -4 -10 -9 -10 -5 0 -12
-8 -16 -19 -5 -17 -17 -33 -69 -93 -9 -10 -18 -29 -22 -42 -3 -15 -11 -23 -19
-20 -19 8 -77 -55 -90 -97 -8 -24 -24 -44 -102 -124 -22 -24 -43 -51 -45 -61
-2 -10 -16 -21 -33 -26 -24 -6 -37 -20 -60 -68 -17 -33 -33 -60 -36 -60 -4 0
-12 -13 -19 -30 -7 -16 -16 -30 -21 -30 -16 0 -9 -50 9 -68 13 -13 29 -17 59
-14 38 4 43 8 84 74 24 38 61 93 82 121 20 28 37 57 37 65 0 7 16 22 35 33 19
12 35 25 35 29 0 5 6 15 13 22 7 7 25 34 39 59 15 25 46 62 70 81 40 33 97
114 137 195 12 25 23 32 44 33 15 0 27 -4 27 -9 0 -12 -84 -136 -121 -179 -16
-18 -29 -39 -29 -46 0 -16 -60 -108 -77 -119 -7 -4 -13 -19 -13 -32 0 -14 -5
-24 -12 -22 -6 1 -16 -11 -22 -28 -6 -16 -16 -34 -23 -38 -7 -4 -13 -14 -13
-22 0 -7 -11 -26 -24 -42 -14 -16 -35 -49 -48 -74 -14 -25 -38 -65 -55 -90
-16 -24 -38 -60 -47 -80 -9 -20 -25 -45 -35 -56 -10 -11 -22 -30 -26 -43 -4
-13 -14 -30 -21 -38 -8 -7 -12 -17 -9 -21 2 -5 -5 -17 -15 -29 -11 -12 -20
-26 -20 -33 0 -14 -39 -80 -55 -94 -7 -6 -15 -35 -19 -66 -6 -47 -4 -57 9 -63
9 -3 24 -2 33 3 28 15 97 118 161 239 57 106 97 173 198 327 24 36 43 70 43
75 0 6 4 10 10 10 5 0 17 17 25 37 9 21 38 72 64 113 26 41 86 135 132 207 53
84 90 133 101 133 25 0 30 -16 14 -48 -8 -15 -17 -45 -21 -66 -4 -21 -14 -40
-21 -43 -8 -3 -14 -13 -14 -23 0 -9 -9 -25 -20 -35 -11 -10 -20 -25 -20 -34 0
-9 -11 -29 -25 -45 -14 -16 -25 -39 -25 -50 0 -39 -12 -65 -31 -71 -11 -4 -19
-16 -19 -29 0 -13 -7 -29 -14 -36 -8 -6 -20 -36 -26 -65 -6 -29 -18 -59 -26
-65 -7 -7 -14 -18 -14 -26 0 -7 -8 -19 -19 -26 -12 -9 -20 -32 -25 -70 -4 -33
-15 -66 -27 -79 -10 -12 -19 -26 -19 -30 0 -4 -6 -14 -12 -21 -26 -27 -58
-104 -58 -137 0 -32 -46 -121 -62 -121 -13 0 -9 -115 4 -128 19 -19 54 -14 66
11 39 81 73 163 91 217 12 34 25 68 30 74 19 23 81 155 81 173 0 11 16 45 35
77 19 32 35 64 35 72 0 7 5 16 10 19 6 3 10 16 10 28 0 12 6 31 13 43 40 68
75 143 82 171 3 18 10 35 15 38 18 11 101 166 116 216 16 57 43 89 75 89 24 0
24 0 -6 -56 -18 -34 -25 -62 -25 -103 0 -44 -4 -59 -19 -68 -13 -8 -21 -29
-26 -62 -4 -28 -15 -62 -26 -75 -10 -13 -19 -33 -19 -44 0 -10 -12 -41 -26
-67 -17 -33 -27 -71 -31 -119 -5 -57 -11 -75 -30 -93 -18 -17 -23 -32 -23 -72
0 -40 -4 -52 -20 -61 -14 -8 -20 -21 -20 -48 0 -20 -9 -50 -20 -67 -12 -18
-20 -47 -20 -72 0 -31 -6 -49 -22 -65 -16 -16 -21 -32 -19 -55 1 -21 -5 -43
-18 -62 -18 -24 -21 -44 -21 -120 0 -99 6 -109 53 -97 18 4 26 16 35 57 7 28
12 60 12 72 0 12 6 34 14 49 8 15 17 42 21 60 4 18 13 42 20 54 7 11 20 47 29
80 17 62 20 70 29 94 3 8 13 40 22 70 10 30 21 64 26 75 23 57 59 174 59 194
0 12 9 43 21 68 11 25 27 71 35 101 8 31 19 61 23 66 8 9 29 75 36 111 2 6 10
32 19 58 9 26 16 56 16 65 0 10 7 27 15 38 17 22 17 21 -16 -299 -10 -104 -19
-222 -19 -263 l0 -75 42 3 43 3 7 50 c4 28 21 158 38 290 38 305 37 297 63
293 18 -3 23 -14 34 -78 9 -54 10 -89 3 -125 -21 -109 -32 -285 -19 -334 9
-35 9 -71 0 -149 -14 -127 -14 -255 -1 -268 6 -6 6 -39 -1 -94 -5 -47 -9 -130
-7 -185 l3 -100 42 -3 42 -3 5 43 c3 24 8 185 11 358 6 383 13 634 21 798 6
118 7 123 27 120 41 -6 50 -49 59 -273 5 -115 12 -248 16 -295 l7 -85 35 0 35
0 0 318 0 317 26 0 c30 0 39 -19 39 -82 0 -21 7 -77 15 -125 8 -49 20 -128 26
-178 6 -49 14 -121 19 -160 5 -38 13 -100 16 -137 4 -38 10 -68 14 -68 4 0 11
-33 14 -72 10 -116 23 -217 41 -308 9 -47 20 -107 24 -135 6 -49 7 -50 44 -53
l37 -3 0 57 c0 32 -11 125 -25 208 -14 83 -38 261 -55 396 -16 135 -32 262
-35 283 -16 113 -35 310 -35 365 0 46 4 62 14 62 8 0 17 -11 20 -25 4 -14 11
-25 16 -25 6 0 10 -15 10 -34 0 -19 4 -37 9 -40 4 -3 10 -36 13 -73 3 -43 17
-96 37 -146 24 -61 30 -87 25 -117 -6 -37 17 -129 38 -155 4 -5 8 -34 8 -65 0
-33 8 -72 20 -98 18 -39 21 -42 60 -42 l41 0 -6 47 c-8 54 -25 132 -55 248
-30 118 -36 141 -64 244 -15 52 -31 133 -38 181 -11 82 -10 89 9 113 l20 26
13 -27 c14 -30 21 -49 150 -432 51 -151 108 -314 126 -362 34 -84 54 -139 97
-263 11 -33 24 -62 27 -65 4 -3 11 -18 17 -35 7 -22 16 -30 34 -30 19 0 25 6
27 30 4 27 -34 172 -48 185 -3 3 -36 95 -74 205 -253 739 -249 727 -250 795
-1 58 1 65 19 68 17 2 27 -13 59 -80 21 -46 39 -95 40 -110 0 -14 4 -24 9 -21
4 2 7 -2 7 -10 0 -7 11 -24 24 -36 13 -13 34 -51 46 -84 12 -34 33 -93 47
-132 98 -273 122 -315 186 -315 49 0 42 53 -37 252 -25 64 -46 121 -46 128 0
6 -11 32 -24 58 -13 26 -27 62 -31 80 -3 18 -21 57 -40 87 -48 81 -123 315
-100 315 17 0 77 -82 86 -118 6 -23 25 -57 41 -74 17 -18 39 -55 50 -83 47
-122 64 -145 105 -145 13 0 15 9 9 55 -8 71 -69 227 -103 262 -26 28 -53 125
-52 186 0 52 2 59 12 44 7 -10 24 -32 38 -48 34 -38 110 -238 184 -478 18 -60
50 -315 65 -529 5 -76 15 -153 21 -171 9 -25 9 -64 0 -159 -19 -202 -20 -210
-46 -238 -25 -27 -26 -32 -44 -174 -10 -85 -13 -102 -24 -130 -3 -8 -8 -33
-12 -55 -4 -22 -15 -49 -25 -60 -9 -11 -23 -44 -30 -72 -6 -29 -15 -53 -20
-53 -4 0 -10 -26 -14 -57 -5 -43 -16 -72 -44 -113 -20 -30 -39 -57 -42 -60
-12 -11 -60 -90 -60 -98 0 -4 -16 -31 -35 -61 -19 -29 -35 -55 -35 -58 0 -2
-12 -19 -26 -38 -14 -18 -30 -49 -35 -68 -5 -19 -22 -48 -38 -64 -40 -41 -71
-96 -71 -128 0 -27 1 -27 41 -21 22 4 51 13 63 21 25 17 74 82 101 135 10 19
50 85 89 145 121 185 135 209 155 253 11 23 24 42 28 42 13 0 57 94 68 143 3
16 17 45 31 66 13 21 33 64 45 97 11 32 26 73 34 89 7 17 20 68 29 115 9 47
25 118 36 158 33 122 43 267 36 507 -3 121 -8 240 -11 265 -9 79 -17 144 -21
165 -2 11 -8 56 -13 100 -13 107 -42 236 -85 370 -50 159 -54 170 -103 258
-24 43 -43 83 -41 89 4 10 87 -90 123 -146 28 -44 67 -94 114 -145 22 -24 38
-48 34 -54 -3 -6 -2 -8 3 -4 10 6 108 -84 157 -144 63 -76 99 -124 112 -148 7
-14 30 -42 50 -61 63 -59 177 -214 167 -226 -4 -4 -2 -4 5 0 13 7 173 -186
173 -210 0 -16 60 -34 113 -34 56 0 48 27 -34 117 -39 43 -116 138 -172 212
-56 74 -124 158 -152 188 -27 30 -62 73 -78 96 -50 76 -62 90 -237 282 -20 22
-58 69 -85 105 -27 36 -76 97 -108 135 -80 94 -135 176 -142 211 l-7 29 31
-35 c17 -19 31 -38 31 -41 0 -3 16 -14 35 -25 44 -23 199 -210 188 -226 -2 -5
-1 -7 4 -6 17 6 73 -25 78 -43 4 -11 25 -29 47 -40 40 -20 65 -42 153 -129 22
-22 48 -40 58 -40 10 0 34 -16 54 -35 35 -34 40 -36 97 -33 60 3 61 3 61 33 0
24 -7 33 -31 46 -18 8 -60 40 -95 70 -35 30 -89 73 -120 96 -30 22 -73 57 -94
77 -21 20 -39 36 -41 36 -28 0 -373 349 -374 378 0 28 41 9 106 -49 38 -34 93
-72 122 -85 32 -15 57 -34 64 -48 6 -15 23 -28 39 -31 15 -4 39 -21 53 -40 19
-24 36 -35 66 -40 23 -4 46 -14 53 -22 25 -31 57 -59 105 -93 28 -19 48 -39
45 -45 -4 -5 -3 -7 2 -3 19 18 158 -75 212 -141 12 -15 40 -33 62 -41 23 -7
57 -28 77 -45 37 -33 76 -45 147 -45 36 0 37 1 37 35 0 29 -6 38 -43 64 -24
16 -49 36 -56 45 -7 8 -35 22 -63 32 -36 12 -74 39 -136 94 -55 50 -97 81
-117 84 -17 4 -63 28 -102 55 -38 27 -79 52 -91 55 -11 4 -47 30 -79 59 -33
29 -80 65 -106 80 -26 15 -47 34 -47 42 0 7 -23 21 -52 31 -40 13 -69 34 -121
85 -42 42 -84 74 -112 84 -67 26 -67 45 1 45 68 0 120 -23 128 -55 5 -20 16
-26 67 -36 44 -9 68 -20 87 -40 19 -20 43 -32 80 -39 33 -6 68 -21 92 -40 21
-16 43 -30 49 -30 6 0 11 -5 11 -11 0 -5 4 -7 10 -4 20 12 87 -15 98 -40 14
-31 37 -40 119 -50 52 -6 67 -12 86 -35 32 -37 52 -46 119 -54 46 -6 62 -13
78 -34 11 -15 24 -32 29 -38 6 -7 38 -15 73 -19 79 -9 124 -27 133 -54 8 -26
45 -36 217 -55 150 -18 218 -20 218 -8 0 24 -23 81 -34 85 -7 3 -35 8 -62 12
-128 17 -206 38 -221 61 -11 17 -33 27 -91 39 -111 24 -143 35 -177 59 -16 12
-59 33 -94 45 -36 13 -71 30 -79 37 -22 22 -43 31 -107 44 -47 9 -67 20 -91
46 -18 19 -42 35 -55 35 -13 1 -28 2 -34 4 -5 1 -21 3 -35 3 -14 1 -52 20 -85
42 -33 22 -76 43 -97 46 -21 4 -51 20 -72 40 -19 18 -52 38 -73 43 -21 6 -61
25 -88 42 -43 27 -110 55 -138 57 -24 1 -67 15 -67 20 0 4 10 26 22 50 23 41
24 42 75 42 70 0 102 -14 114 -49 10 -28 15 -30 77 -36 178 -17 216 -25 237
-49 26 -31 33 -33 198 -51 137 -15 139 -16 172 -50 23 -25 41 -35 62 -35 16 0
32 -2 35 -5 3 -3 56 -7 118 -8 l112 -3 -5 39 c-3 21 -7 40 -9 42 -1 2 -48 11
-103 20 -84 14 -104 21 -128 45 -24 25 -38 29 -105 35 -151 12 -194 22 -223
54 -30 33 -42 37 -144 46 -152 13 -169 16 -229 49 -34 19 -79 37 -101 41 -70
11 -115 28 -115 42 0 17 79 17 310 -1 96 -7 182 -14 190 -14 51 -1 298 -24
310 -29 15 -5 110 -12 162 -13 20 0 31 -8 42 -29 11 -20 25 -31 48 -35 44 -8
640 -27 647 -21 7 7 5 75 -3 82 -8 8 -486 38 -558 35 -32 -1 -40 3 -52 27 -9
16 -23 32 -33 35 -17 7 -197 21 -379 31 -44 2 -150 9 -235 15 -85 5 -190 12
-234 15 -44 3 -100 9 -125 12 -25 4 -49 7 -54 8 -5 0 -11 6 -14 13 -4 12 56
13 352 7 l357 -8 23 22 c23 22 33 23 277 28 194 4 258 9 270 19 12 11 97 15
397 21 l382 6 0 33 c0 32 -1 33 -57 40 -32 4 -230 8 -439 8 l-382 1 -19 -24
c-23 -28 -12 -28 -289 -16 -196 8 -202 7 -231 -13 -25 -18 -47 -22 -134 -24
-90 -2 -213 4 -314 17 -16 2 -58 7 -93 11 -61 6 -87 19 -60 29 7 3 44 9 83 14
44 7 74 16 82 27 9 13 39 18 140 25 157 11 182 15 203 34 10 9 55 20 106 26
49 6 101 17 115 25 16 8 82 16 173 20 l146 7 0 34 0 33 95 0 c94 0 95 0 95 25
0 42 -39 58 -155 63 l-104 5 -17 -36 -17 -35 -133 5 -133 6 -10 -26 c-9 -23
-17 -26 -78 -31 -37 -4 -90 -9 -117 -12 -27 -2 -60 -13 -74 -24 -22 -18 -40
-20 -158 -20 -121 0 -133 -2 -139 -19 -6 -20 -54 -31 -106 -23 -39 6 -37 25 6
41 19 7 35 16 35 21 0 11 65 30 106 30 45 0 91 19 97 39 5 19 60 31 147 31 33
0 55 6 73 21 19 14 48 22 98 26 74 6 99 20 99 55 0 20 3 21 105 15 l105 -6 15
29 c18 35 33 39 145 42 80 3 85 4 88 26 5 30 24 38 117 47 44 4 100 16 125 26
24 11 71 22 105 25 73 7 105 21 105 47 0 19 5 20 90 14 l90 -7 0 28 c0 58 -19
68 -133 76 -57 3 -111 4 -120 0 -9 -3 -18 -18 -22 -32 -5 -26 -9 -27 -78 -30
-62 -3 -75 -7 -92 -28 -18 -22 -30 -25 -110 -30 -140 -8 -170 -13 -194 -35
-16 -16 -42 -22 -117 -28 -76 -6 -99 -12 -114 -28 -12 -13 -38 -23 -72 -27
-62 -8 -70 -12 -85 -47 -11 -25 -15 -26 -112 -31 -72 -4 -106 -9 -119 -21 -10
-9 -52 -19 -111 -25 -93 -10 -111 -18 -124 -56 -4 -12 -95 -14 -150 -3 -60 12
-39 31 48 43 59 8 83 16 96 32 13 17 34 24 100 31 72 8 85 13 102 35 14 19 28
26 53 26 36 0 90 22 96 40 1 5 41 15 88 20 68 9 89 16 107 34 17 19 37 25 93
31 54 5 78 13 100 32 20 16 51 28 97 35 37 6 80 19 95 30 15 10 51 22 79 25
39 5 60 14 82 34 16 16 46 31 66 35 68 11 86 20 89 43 2 13 0 27 -5 31 -4 5
-51 12 -103 15 l-95 7 -13 -30 c-13 -30 -41 -42 -99 -42 -14 0 -38 -13 -56
-31 -36 -36 -72 -49 -139 -49 -28 0 -63 -8 -86 -20 -22 -11 -62 -23 -90 -27
-56 -6 -62 -9 -78 -38 -10 -17 -23 -20 -105 -23 -78 -3 -95 -6 -107 -23 -7
-10 -39 -26 -70 -35 -31 -9 -66 -24 -77 -34 -11 -10 -51 -23 -89 -29 -37 -7
-80 -21 -95 -32 -26 -19 -113 -31 -127 -17 -15 15 7 38 35 38 40 0 83 17 101
40 9 12 37 24 69 30 30 6 64 19 76 30 17 16 35 20 83 20 58 0 62 2 76 29 13
25 23 30 72 36 40 5 64 14 80 30 26 26 40 32 99 40 25 4 48 15 60 30 11 14 36
27 55 30 80 14 80 14 80 44 0 25 -5 30 -35 35 -49 10 -119 -2 -182 -30 -30
-13 -61 -24 -69 -24 -14 0 -71 -27 -84 -40 -3 -3 -9 -5 -15 -6 -39 -2 -95 -20
-121 -40 -17 -13 -53 -28 -80 -35 -27 -7 -53 -15 -59 -19 -5 -4 -37 -17 -70
-29 -33 -13 -81 -34 -107 -48 -37 -18 -60 -23 -100 -21 -70 4 -78 29 -16 47
24 7 54 23 68 36 14 13 39 26 57 30 18 3 42 14 55 24 13 10 41 27 63 38 22 11
58 30 80 41 22 12 52 24 67 27 15 3 29 14 33 25 4 13 21 24 52 31 30 8 48 19
55 35 12 25 27 34 72 40 16 2 41 14 55 28 14 13 40 31 58 40 18 9 44 27 59 41
15 14 35 25 46 25 25 0 69 23 92 49 11 12 25 21 33 21 14 0 33 39 33 67 0 25
-152 13 -183 -14 -26 -24 -153 -103 -166 -103 -20 0 -164 -80 -177 -98 -7 -11
-33 -25 -58 -32 -24 -7 -57 -25 -72 -41 -15 -16 -36 -29 -46 -29 -11 0 -31
-12 -45 -26 -14 -14 -43 -32 -65 -40 -35 -12 -79 -38 -191 -112 -21 -14 -43
-34 -48 -44 -11 -21 -29 -24 -29 -4 0 25 42 66 94 92 29 14 64 36 77 47 27 24
105 77 114 77 4 0 21 15 39 33 40 38 116 105 132 115 6 4 16 17 23 29 8 15 24
25 50 29 30 5 55 21 106 70 37 35 72 64 78 64 19 0 177 170 177 190 0 17 -6
20 -47 19 -27 -1 -57 -4 -68 -6z"/>
</g>
</svg>
